<svg width="1440" height="864" viewBox="0 0 1440 864" fill="none" xmlns="http://www.w3.org/2000/svg">
<g filter="url(#filter0_d)">
<path d="M0 53H1440V866H0V53Z" fill="#FFE0E2"/>
</g>
<path fill-rule="evenodd" clip-rule="evenodd" d="M883.024 81.7785L877.741 78.4787L865.286 94.6571L870.568 97.957L883.024 81.7785ZM199.442 98.1667L205.82 98.8893L203.093 118.423L196.714 117.701L199.442 98.1667ZM94.786 123.645L98.0003 128.66L79.0715 138.504L75.8572 133.489L94.786 123.645ZM354.455 233.667L359.738 236.967L347.283 253.145L342 249.845L354.455 233.667ZM285.534 170.693L279.156 169.97L276.429 189.504L282.807 190.227L285.534 170.693ZM61.152 187.342L56.5714 191.405L71.9072 205.433L76.4878 201.37L61.152 187.342ZM1089.93 247.564L1093.14 252.579L1074.21 262.423L1071 257.408L1089.93 247.564ZM1359.29 121.711L1356.07 116.697L1337.14 126.541L1340.36 131.555L1359.29 121.711ZM1284.58 307.786L1290.96 308.509L1288.24 328.043L1281.86 327.32L1284.58 307.786ZM1351.39 554.03L1345.01 553.308L1342.29 572.842L1348.66 573.564L1351.39 554.03ZM1112.14 399.866L1116.72 395.804L1132.06 409.832L1127.48 413.895L1112.14 399.866ZM925.152 414.334L920.571 418.396L935.907 432.425L940.488 428.362L925.152 414.334ZM282.081 318.831L279 313.75L298.182 304.312L301.264 309.394L282.081 318.831ZM176.637 328.897L182.995 329.755L186.235 310.284L179.877 309.426L176.637 328.897ZM62.929 288.739L56.5714 287.881L59.8117 268.41L66.1692 269.269L62.929 288.739ZM651.857 511.398L658.215 512.256L661.455 492.786L655.097 491.927L651.857 511.398ZM730.682 705.027L727.375 709.993L708.631 699.866L711.937 694.9L730.682 705.027ZM409.677 311.046L414.363 307.082L399.4 292.731L394.714 296.695L409.677 311.046ZM542.961 112.064L548.244 115.364L535.788 131.542L530.506 128.243L542.961 112.064ZM523.796 310.725L520.714 305.643L539.897 296.205L542.978 301.287L523.796 310.725ZM351 123.818L354.082 128.9L373.264 119.462L370.182 114.38L351 123.818ZM428.072 191.939L421.714 191.08L424.955 171.61L431.312 172.468L428.072 191.939ZM647.534 139.645L652.22 135.681L637.257 121.329L632.571 125.293L647.534 139.645ZM187.833 563.201L181.286 562.368L184.521 542.885L191.069 543.718L187.833 563.201ZM94.1509 477.229L88.7233 473.917L75.8571 490.067L81.2847 493.379L94.1509 477.229ZM236.571 384.848L242.866 383.064L249.798 401.794L243.503 403.578L236.571 384.848ZM721.152 403.91L714.857 405.694L721.789 424.424L728.084 422.64L721.152 403.91ZM1179.51 138.165L1176.43 133.083L1195.61 123.645L1198.69 128.727L1179.51 138.165ZM1252.48 218.958L1258.89 218.566L1257.41 198.923L1251 199.315L1252.48 218.958ZM1062.42 136.349L1056.07 135.491L1059.31 116.02L1065.66 116.878L1062.42 136.349ZM953.92 253.472L957.052 248.415L937.964 238.823L934.832 243.88L953.92 253.472ZM1293.36 684.816L1287 683.957L1290.24 664.487L1296.6 665.345L1293.36 684.816ZM1162.15 296.205L1155.86 297.989L1162.79 316.719L1169.08 314.935L1162.15 296.205ZM1020.86 467.075L1027.15 465.29L1034.08 484.02L1027.79 485.805L1020.86 467.075ZM384.156 615.846L381.857 621.276L402.953 628.115L405.251 622.685L384.156 615.846ZM383.432 423.247L388.177 419.309L403.676 433.902L398.931 437.84L383.432 423.247ZM419.272 438.228L417.142 432.742L396.122 439.767L398.252 445.253L419.272 438.228Z" fill="#FFEFF0"/>
<path fill-rule="evenodd" clip-rule="evenodd" d="M979.642 143.9C980.882 138.901 986.634 136.105 991.344 138.213L1021.72 151.802C1025.14 153.332 1026.85 157.004 1025.83 160.611L1018.77 185.556C1017.53 189.97 1012.7 192.646 1008.24 191.394L977.505 182.764C973.527 181.647 971.241 177.769 972.225 173.804L979.642 143.9ZM113.512 222.498C111.366 227.286 114.32 232.573 119.512 233.236L192.3 242.536C196.567 243.081 200.664 240.228 201.598 236.062L212.29 188.343C213.268 183.979 210.415 179.839 205.965 179.166L143.912 169.771C140.204 169.21 136.479 171.25 134.939 174.685L113.512 222.498ZM1256.75 373.041C1254.74 377.859 1257.81 383.051 1263 383.609L1350.59 393.02C1354.78 393.47 1358.76 390.67 1359.71 386.599L1376.69 314.008C1377.72 309.576 1374.79 305.358 1370.25 304.741L1296.32 294.705C1292.57 294.196 1288.85 296.328 1287.38 299.824L1256.75 373.041ZM456.887 520.679C455.844 525.728 450.213 528.723 445.432 526.774L357.19 490.785C353.718 489.369 351.864 485.751 352.742 482.104L370.608 407.928C371.684 403.463 376.402 400.619 380.9 401.725L469.532 423.504C473.541 424.49 475.969 428.294 475.143 432.295L456.887 520.679ZM148.325 836.859C150.585 841.586 156.947 843.233 161.143 840.18L211.959 803.197C215.078 800.927 215.86 796.801 213.807 793.451L163.642 711.618C161.133 707.526 155.459 706.219 151.51 708.824L107.817 737.649C104.732 739.685 103.679 743.515 105.283 746.869L148.325 836.859ZM1057.99 632.462C1053.64 635.202 1047.49 633.286 1045.46 628.562L1034.75 603.593C1033.28 600.162 1034.53 596.355 1037.75 594.456L1058.37 582.303C1062.29 579.995 1067.65 581.32 1070.11 585.208L1084.07 607.27C1086.31 610.799 1085.35 615.206 1081.86 617.403L1057.99 632.462ZM1345.39 831.749C1350.68 831.905 1354.52 827.063 1353.14 821.974L1337.58 764.541C1336.43 760.308 1332.08 757.661 1327.82 758.598L1299.16 764.901C1294.87 765.845 1292.27 770.065 1293.34 774.345L1305.93 824.54C1306.82 828.116 1310.05 830.705 1313.75 830.815L1345.39 831.749ZM126.683 342.973C126.564 337.8 121.588 333.975 116.555 335.19L82.3632 343.445C78.2808 344.43 75.7553 348.41 76.5882 352.546L82.0603 379.713C82.9581 384.171 87.3923 387.095 91.8233 386.151L121.212 379.893C124.882 379.111 127.437 375.883 127.351 372.136L126.683 342.973Z" fill="#FFE6E7"/>
<defs>
<filter id="filter0_d" x="-59" y="0" width="1558" height="931" filterUnits="userSpaceOnUse" color-interpolation-filters="sRGB">
<feFlood flood-opacity="0" result="BackgroundImageFix"/>
<feColorMatrix in="SourceAlpha" type="matrix" values="0 0 0 0 0 0 0 0 0 0 0 0 0 0 0 0 0 0 127 0" result="hardAlpha"/>
<feOffset dy="6"/>
<feGaussianBlur stdDeviation="29.5"/>
<feColorMatrix type="matrix" values="0 0 0 0 0.208402 0 0 0 0 0.190642 0 0 0 0 0.329167 0 0 0 0.08 0"/>
<feBlend mode="normal" in2="BackgroundImageFix" result="effect1_dropShadow"/>
<feBlend mode="normal" in="SourceGraphic" in2="effect1_dropShadow" result="shape"/>
</filter>
</defs>
</svg>
