<svg width="667" height="469" viewBox="0 0 667 469" fill="none" xmlns="http://www.w3.org/2000/svg">
<path d="M474.536 260.171C464.951 260.171 451.014 257.11 436.825 253.502C436.32 253.338 424.149 250.167 418.978 247.981L387.005 237.211L403.591 196.977L443.825 206.871C444.834 207.199 468.104 214.798 471.32 216.547C473.779 217.914 474.978 219.445 474.978 221.139C474.978 222.561 474.095 223.763 473.212 224.583C475.482 225.13 479.644 226.169 486.077 227.809C490.113 228.847 492.572 230.487 493.329 232.674C494.022 234.642 493.14 236.501 492.446 237.485C493.896 238.797 494.59 240.273 494.59 241.858C494.59 244.154 493.013 245.958 492.131 246.778C492.446 248.965 491.941 250.823 490.743 252.19C489.545 253.557 487.968 254.103 486.896 254.377C486.581 255.962 485.635 257.219 484.122 258.149C481.977 259.57 478.635 260.171 474.536 260.171ZM390.222 235.954L420.113 246.013C425.032 248.145 437.455 251.37 437.581 251.425C449.879 254.541 475.419 260.937 482.671 256.454C483.806 255.743 484.437 254.759 484.5 253.502L484.563 252.573L485.635 252.463C485.635 252.463 487.59 252.245 488.788 250.933C489.671 249.894 489.923 248.473 489.608 246.669L489.482 246.067L489.986 245.685C489.986 245.685 492.067 243.99 492.067 241.967C492.067 240.819 491.374 239.671 489.986 238.578L489.104 237.867L489.86 237.047C489.923 236.993 491.563 235.189 490.932 233.385C490.428 231.963 488.473 230.815 485.383 229.995C474.662 227.262 470.374 226.223 470.374 226.223L467.599 225.567L469.996 224.255C470.689 223.873 472.518 222.561 472.518 221.194C472.518 220.265 471.698 219.335 469.996 218.461C467.536 217.149 449.753 211.19 443.005 209.003L405.23 199.71L390.222 235.954Z" fill="black"/>
<path d="M419.546 264.053C409.834 264.053 330.691 230.269 298.402 202.225C281.754 187.793 278.853 168.769 279.358 155.321C279.925 140.779 284.466 129.518 284.466 129.409L284.529 129.245L284.655 129.354C285.222 129.737 341.537 165.762 386.185 185.114C406.429 193.915 425.158 201.295 443.446 207.801H443.509V207.855C443.635 210.261 441.113 221.85 431.654 231.69C423.771 239.89 420.239 246.067 419.735 246.887C424.78 249.019 437.14 252.245 437.266 252.299L437.392 252.354L437.329 252.463C437.266 252.627 430.834 264.053 419.546 264.053Z" fill="#98D8F4"/>
<path d="M468.104 226.77C467.978 226.77 467.851 226.77 467.788 226.715L452.023 222.889C451.329 222.725 450.951 222.123 451.14 221.522C451.329 220.921 452.023 220.593 452.716 220.757L468.482 224.583C469.176 224.747 469.554 225.349 469.365 225.95C469.176 226.442 468.671 226.77 468.104 226.77Z" fill="black"/>
<path d="M489.545 239.343C489.482 239.343 489.356 239.343 489.293 239.343C489.103 239.289 472.077 236.009 458.897 232.182C458.266 232.018 457.888 231.362 458.077 230.815C458.266 230.269 459.023 229.941 459.653 230.105C472.707 233.877 489.608 237.157 489.797 237.157C490.491 237.266 490.932 237.867 490.743 238.469C490.617 239.015 490.112 239.343 489.545 239.343Z" fill="black"/>
<path d="M489.545 247.489C489.419 247.489 489.356 247.489 489.23 247.434C489.041 247.379 468.23 242.514 456.374 239.289C455.68 239.125 455.365 238.469 455.554 237.922C455.743 237.375 456.5 237.047 457.131 237.211C468.924 240.437 489.671 245.302 489.86 245.357C490.554 245.521 490.932 246.122 490.743 246.723C490.617 247.161 490.113 247.489 489.545 247.489Z" fill="black"/>
<path d="M484.5 253.557C484.437 253.557 484.374 253.557 484.248 253.557C484.058 253.502 463.752 250.222 452.527 246.942C451.896 246.723 451.518 246.122 451.707 245.575C451.96 245.029 452.653 244.701 453.284 244.865C464.32 248.09 484.437 251.37 484.626 251.37C485.32 251.479 485.761 252.026 485.635 252.627C485.635 253.174 485.067 253.557 484.5 253.557Z" fill="black"/>
<path d="M451.644 250.277C451.518 250.277 451.329 250.277 451.203 250.222C450.572 250.003 450.194 249.402 450.446 248.801L459.023 228.355C459.275 227.809 459.969 227.481 460.662 227.699C461.293 227.918 461.671 228.519 461.419 229.121L452.843 249.566C452.653 250.003 452.149 250.277 451.644 250.277Z" fill="black"/>
<path d="M380.762 250.823C380.573 250.823 380.384 250.769 380.132 250.714C379.501 250.441 379.312 249.785 379.627 249.238C386.123 238.851 382.086 225.841 370.42 219.718C358.375 213.322 342.546 216.657 335.105 227.098C334.727 227.59 333.97 227.754 333.339 227.481C332.772 227.153 332.582 226.497 332.898 225.95C341.033 214.47 358.375 210.807 371.681 217.805C384.483 224.583 388.96 238.797 381.771 250.277C381.645 250.605 381.204 250.823 380.762 250.823Z" fill="black"/>
<path d="M419.483 264.053C419.356 263.943 416.897 261.757 416.897 256.837C416.897 251.971 419.419 246.997 419.419 246.942L419.483 246.833L419.609 246.887C424.591 249.019 437.14 252.299 437.266 252.354L437.392 252.409L437.329 252.518C437.266 252.627 430.834 264.053 419.483 264.053Z" fill="black"/>
<path d="M350.807 11.7113C346.078 -7.09399 315.303 -2.33799 325.898 19.7473C335.672 37.4593 348.159 57.7953 350.555 61.7313C350.618 61.8407 350.681 61.95 350.744 62.0593C350.807 61.95 350.87 61.8407 350.933 61.7313C353.33 57.85 365.816 37.514 375.591 19.7473C386.311 -2.33799 355.537 -7.14866 350.807 11.7113Z" fill="#F696BB"/>
<path d="M386.375 333.753C383.726 333.753 381.267 332.003 381.204 332.003L380.699 331.621L380.068 331.785C378.996 332.058 377.987 332.222 377.105 332.222C373.069 332.222 372.249 329.161 372.186 328.833L371.933 327.63L370.546 328.013C370.041 328.177 369.537 328.231 368.969 328.231C367.519 328.231 366.132 327.685 365.312 326.81C364.492 325.935 364.24 324.678 364.618 323.311L370.041 302.101L368.276 302.319C368.276 302.319 368.023 302.319 367.645 302.319C366.573 302.319 364.681 302.155 363.609 300.898C362.537 299.695 362.474 297.618 363.357 294.885L367.834 280.726L382.591 248.145L423.582 248.637L412.356 283.842C411.284 287.997 409.771 293.627 408.825 297.071C406.239 306.693 401.32 323.257 400.69 324.842C398.735 329.598 395.582 330.254 393.879 330.254C393.248 330.254 392.807 330.145 392.807 330.145L391.861 329.926L391.357 330.691C390.032 332.714 388.456 333.753 386.375 333.753Z" fill="white"/>
<path d="M383.411 249.183L421.942 249.675L411.158 283.514V283.569V283.623C410.086 287.778 408.573 293.409 407.69 296.798C405.104 306.365 400.185 322.874 399.555 324.459C398.293 327.521 396.339 329.161 393.942 329.161C393.564 329.161 393.248 329.106 393.185 329.106L391.294 328.559L390.285 330.199C388.897 332.441 387.447 332.714 386.501 332.714C384.672 332.714 382.717 331.621 382.149 331.238L381.077 330.473L379.753 330.801C378.807 331.074 377.924 331.183 377.168 331.183C374.33 331.183 373.636 329.215 373.51 328.669L373.068 326.154L370.231 326.974C369.852 327.083 369.474 327.138 369.096 327.138C368.023 327.138 367.014 326.755 366.384 326.099C365.816 325.443 365.627 324.569 365.942 323.475L370.987 303.795L371.807 300.734L368.213 301.171C368.213 301.171 368.023 301.171 367.708 301.171C367.078 301.171 365.438 301.062 364.681 300.187C363.861 299.313 363.861 297.509 364.618 295.158L369.032 281.054L383.411 249.183ZM381.708 246.997L366.636 280.343L362.159 294.557C359.573 302.593 365.438 303.358 367.645 303.358C368.15 303.358 368.465 303.303 368.465 303.303L363.42 322.983C362.411 327.029 365.69 329.27 369.032 329.27C369.663 329.27 370.357 329.161 370.987 328.997C370.987 328.997 371.87 333.315 377.104 333.315C378.05 333.315 379.186 333.151 380.447 332.823C380.447 332.823 383.222 334.846 386.375 334.846C388.456 334.846 390.663 333.971 392.429 331.183C392.429 331.183 392.996 331.347 393.879 331.347C395.96 331.347 399.681 330.527 401.888 325.17C402.582 323.421 407.564 306.583 410.086 297.29C411.032 293.901 412.483 288.325 413.555 284.061L425.221 247.543L381.708 246.997Z" fill="black"/>
<path d="M414.69 297.618C412.041 297.618 410.086 297.399 410.086 297.399H409.96L410.023 297.29C410.843 294.174 413.176 285.482 413.492 284.225C408.32 284.498 403.401 284.662 398.798 284.662C374.645 284.662 366.699 280.507 366.636 280.453L366.573 280.398L408.194 127.113L453.158 153.462V153.517C453.032 154.446 442.311 248.035 431.717 289.637C429.888 296.579 420.239 297.618 414.69 297.618Z" fill="#F9494B"/>
<path d="M414.69 297.618C412.041 297.618 410.086 297.399 410.086 297.399H409.96L410.023 297.29C410.906 293.955 413.491 284.17 413.491 284.061V284.006H413.618C414.374 283.951 415.068 283.951 415.762 283.951C422.825 283.951 426.735 285.482 428.816 286.794C431.086 288.215 431.654 289.582 431.654 289.637V289.691V289.746C429.888 296.579 420.239 297.618 414.69 297.618Z" fill="black"/>
<path d="M372.249 328.45C372.123 328.45 372.059 328.45 371.933 328.395C371.24 328.231 370.861 327.63 371.05 327.083C371.114 326.919 375.465 312.214 378.618 300.351C378.744 299.75 379.438 299.367 380.131 299.531C380.825 299.641 381.267 300.242 381.077 300.843C377.987 312.761 373.573 327.521 373.51 327.685C373.321 328.122 372.816 328.45 372.249 328.45Z" fill="black"/>
<path d="M381.077 332.823C380.951 332.823 380.888 332.823 380.762 332.769C380.068 332.605 379.69 332.003 379.879 331.457C379.942 331.293 384.924 314.401 388.077 301.991C388.203 301.39 388.897 301.007 389.591 301.171C390.284 301.281 390.726 301.882 390.537 302.483C387.384 314.947 382.402 331.894 382.339 332.058C382.149 332.495 381.645 332.823 381.077 332.823Z" fill="black"/>
<path d="M391.798 331.183C391.672 331.183 391.546 331.183 391.483 331.129C390.789 330.965 390.411 330.363 390.6 329.762C393.69 320.086 397.474 303.249 397.537 303.085C397.663 302.483 398.357 302.101 398.987 302.21C399.681 302.319 400.122 302.921 399.996 303.467C399.933 303.631 396.149 320.578 393.059 330.363C392.87 330.855 392.366 331.183 391.798 331.183Z" fill="black"/>
<path d="M401.257 304.397C401.194 304.397 401.131 304.397 401.005 304.397L376.411 300.57C375.717 300.461 375.276 299.914 375.402 299.313C375.528 298.711 376.159 298.329 376.852 298.438L401.447 302.265C402.14 302.374 402.582 302.921 402.456 303.522C402.393 304.014 401.888 304.397 401.257 304.397Z" fill="black"/>
<path d="M485.509 396.455C440.104 396.455 407.879 387.162 407.564 387.053L407.375 386.998L452.969 343.101L568.436 332.714C576.634 331.238 584.265 330.473 591.076 330.473C601.985 330.473 608.985 332.441 612.958 334.081C617.246 335.885 618.949 337.634 619.012 337.689C621.85 341.734 621.598 346.381 618.319 351.574C605.706 371.637 549.58 395.034 493.392 396.346C490.743 396.401 488.094 396.455 485.509 396.455Z" fill="black"/>
<path d="M350.618 467.959V467.85C350.618 459.486 357.24 451.669 370.231 439.369C380.005 430.075 383.6 400.337 385.492 378.798L395.519 336.049L461.356 321.234L463.374 367.81C464.761 389.731 464.635 412.855 464.509 421.711V421.766H464.446C448.302 425.757 419.609 437.018 409.266 467.85V467.905L350.618 467.959Z" fill="#F696BB"/>
<path d="M434.554 467.959L428.879 438.822L428.942 438.767C438.401 430.895 450.572 424.937 464.32 421.602L464.509 421.547V421.711C464.446 424.335 464.446 425.811 464.446 425.811C462.68 456.643 459.401 467.795 459.401 467.905V468.014L434.554 467.959Z" fill="black"/>
<path d="M548.761 467.959C548.634 467.795 538.355 454.894 524.355 421.602L524.292 421.438H524.481C541.13 422.149 557.337 427.287 571.274 436.307L571.337 436.362L569.76 467.959H548.761V467.959Z" fill="black"/>
<path d="M599.652 467.959C586.913 441.61 556.706 423.023 524.418 421.657H524.355V421.602C517.797 405.967 511.554 388.255 505.752 368.958C501.653 355.182 498.689 347.146 496.986 344.959L496.86 344.85L567.112 330.582L596.688 380.93C598.012 383.007 599.337 385.249 600.724 387.49C612.075 405.967 626.201 428.982 650.859 446.475C668.579 459.049 666.688 467.795 666.688 467.905V468.014L599.652 467.959Z" fill="#F696BB"/>
<path d="M449.248 124.434C449.122 124.379 436.698 116.781 426.924 116.781C421.122 116.781 417.338 119.35 415.699 124.434L410.023 127.167V127.222C409.771 129.627 386.501 366.99 385.492 378.743V378.798L385.555 378.853C385.618 378.853 391.167 380.985 402.708 380.985C416.14 380.985 439.284 378.142 473.275 364.639C528.644 342.609 559.733 334.245 568.499 332.933C576.697 331.457 584.265 330.691 591.076 330.691C607.661 330.691 616.49 335.338 618.823 337.798L619.012 337.689C612.58 326.919 450.951 126.511 449.248 124.434Z" fill="#F9494B"/>
<path d="M503.229 208.785L448.87 124.434L460.473 126.074C489.986 136.625 513.887 148.925 531.608 162.591C546.364 174.017 556.517 185.989 561.688 198.343L561.436 198.398L503.419 208.675L503.229 208.785Z" fill="#F9494B"/>
<path d="M503.986 210.917C503.545 210.917 503.103 210.698 502.851 210.37L502.157 209.277C501.842 208.73 502.031 208.074 502.662 207.801C503.293 207.527 504.049 207.691 504.365 208.238L505.058 209.331C505.374 209.878 505.184 210.534 504.554 210.807C504.428 210.862 504.175 210.917 503.986 210.917Z" fill="black"/>
<path d="M503.293 209.823C502.851 209.823 502.41 209.605 502.22 209.277L465.644 152.369C465.329 151.822 465.518 151.166 466.149 150.893C466.779 150.619 467.536 150.783 467.851 151.33L504.428 208.238C504.743 208.785 504.554 209.441 503.923 209.714C503.734 209.769 503.482 209.823 503.293 209.823Z" fill="black"/>
<path d="M454.735 132.47C447.104 132.47 440.924 127.113 440.924 120.498C440.924 113.883 447.104 108.526 454.735 108.526C462.365 108.526 468.545 113.883 468.545 120.498C468.545 127.113 462.365 132.47 454.735 132.47Z" fill="white"/>
<path d="M454.734 109.565C461.671 109.565 467.284 114.43 467.284 120.443C467.284 126.457 461.671 131.322 454.734 131.322C447.798 131.322 442.185 126.457 442.185 120.443C442.185 114.43 447.798 109.565 454.734 109.565ZM454.734 107.378C446.41 107.378 439.663 113.227 439.663 120.443C439.663 127.659 446.41 133.509 454.734 133.509C463.059 133.509 469.806 127.659 469.806 120.443C469.806 113.227 463.059 107.378 454.734 107.378Z" fill="black"/>
<path d="M423.582 137.499C411.915 137.499 402.014 126.457 399.429 110.713C396.402 92.3446 402.266 76.4913 412.924 73.922C415.32 73.3206 417.843 73.0473 420.302 73.0473C435.879 73.0473 448.113 84.3633 448.239 84.4726C454.041 90.1033 456.311 95.406 455.617 101.693C454.861 108.745 450.32 116.999 441.428 127.714C436.131 134.11 429.951 137.499 423.582 137.499Z" fill="white"/>
<path d="M420.365 71.954V74.1406C435.122 74.1406 446.915 84.8007 447.356 85.1833C456.879 94.4767 459.023 104.754 440.419 127.058C435.374 133.126 429.509 136.351 423.582 136.351C418.537 136.351 413.492 133.946 409.393 129.573C404.978 124.871 401.888 118.093 400.69 110.549C399.239 101.583 399.87 93.0007 402.393 86.3313C404.789 80.0993 408.636 76.1086 413.239 74.9606C415.51 74.414 417.906 74.1406 420.302 74.1406L420.365 71.954ZM420.365 71.954C417.843 71.954 415.257 72.2273 412.609 72.8833C401.447 75.562 395.077 91.5793 398.167 110.877C400.879 127.55 411.663 138.593 423.582 138.593C429.888 138.593 436.572 135.477 442.437 128.37C460.852 106.23 460.284 94.586 449.185 83.7073C449.185 83.762 436.699 71.954 420.365 71.954Z" fill="black"/>
<path d="M411.978 111.369C411.663 111.369 411.41 111.259 411.158 111.095C410.149 110.33 409.329 109.346 408.888 108.198V108.143C408.384 106.449 408.951 103.661 410.906 98.1394C411.095 97.5381 411.852 97.2647 412.483 97.4287C413.176 97.5927 413.491 98.2487 413.302 98.7954C412.23 101.802 410.843 105.957 411.284 107.542C411.6 108.307 412.104 108.909 412.798 109.455C413.302 109.838 413.365 110.549 412.924 110.986C412.672 111.259 412.356 111.369 411.978 111.369Z" fill="black"/>
<path d="M421.437 104.535C421.374 104.535 421.248 104.535 421.185 104.535C420.492 104.426 420.05 103.825 420.176 103.223L420.492 101.857C420.618 101.255 421.311 100.873 422.005 100.982C422.699 101.091 423.14 101.693 423.014 102.294L422.699 103.661C422.573 104.153 422.005 104.535 421.437 104.535Z" fill="black"/>
<path d="M405.104 98.4127C405.041 98.4127 404.978 98.4127 404.915 98.4127C404.221 98.3034 403.78 97.7567 403.906 97.1553L404.158 95.8434C404.284 95.242 404.915 94.8594 405.609 94.9687C406.302 95.078 406.744 95.6247 406.618 96.226L406.365 97.538C406.239 98.03 405.735 98.4127 405.104 98.4127Z" fill="black"/>
<path d="M416.455 119.077C415.951 119.077 415.509 119.022 415.005 118.913C414.627 118.858 414.185 118.694 413.87 118.585C413.239 118.366 412.924 117.71 413.176 117.163C413.428 116.617 414.185 116.343 414.816 116.562C415.068 116.671 415.32 116.726 415.509 116.781C417.654 117.218 419.735 116.07 420.239 114.266C420.365 113.665 421.059 113.282 421.753 113.446C422.446 113.555 422.888 114.157 422.699 114.758C422.068 117.327 419.419 119.077 416.455 119.077Z" fill="black"/>
<path d="M456.815 123.341C456.626 123.341 456.374 123.286 456.185 123.177L448.491 119.459C447.861 119.186 447.671 118.475 447.987 117.983C448.302 117.437 449.122 117.273 449.689 117.546L457.383 121.263C458.014 121.537 458.203 122.247 457.887 122.739C457.698 123.122 457.257 123.341 456.815 123.341Z" fill="black"/>
<path d="M460.599 86.55C473.486 86.55 483.932 77.4942 483.932 66.3233C483.932 55.1525 473.486 46.0967 460.599 46.0967C447.713 46.0967 437.266 55.1525 437.266 66.3233C437.266 77.4942 447.713 86.55 460.599 86.55Z" fill="black"/>
<path d="M584.769 331.894C584.706 331.894 584.643 331.894 584.58 331.894C583.886 331.785 583.382 331.238 583.508 330.637L588.427 299.75C588.553 299.149 589.184 298.711 589.877 298.821C590.571 298.93 591.075 299.477 590.949 300.078L586.03 330.965C585.904 331.511 585.4 331.894 584.769 331.894Z" fill="black"/>
<path d="M523.599 347.037C523.346 347.037 523.094 346.982 522.842 346.818L480.59 318.938C480.149 318.665 479.959 318.118 480.212 317.681C480.401 317.243 480.968 316.915 481.536 317.025L539.869 322.874L534.382 281.054C534.319 280.562 534.698 280.07 535.202 279.906C535.77 279.742 536.4 279.906 536.716 280.398L562.256 316.751L583.067 292.261C583.508 291.769 584.265 291.659 584.832 292.042C585.4 292.425 585.526 293.081 585.085 293.573L563.139 319.375C562.887 319.649 562.508 319.813 562.067 319.813C561.625 319.813 561.247 319.594 561.058 319.266L537.535 285.81L542.58 324.077C542.643 324.405 542.517 324.733 542.202 324.951C541.887 325.17 541.571 325.279 541.193 325.279L485.824 319.703L524.418 345.178C524.986 345.561 525.049 346.217 524.671 346.709C524.355 346.873 523.977 347.037 523.599 347.037Z" fill="black"/>
<path d="M419.545 380.383H419.482C418.789 380.329 418.284 379.837 418.284 379.235L420.807 348.021C420.807 347.693 421.059 347.419 421.311 347.201C421.627 347.037 422.005 346.927 422.383 347.037L451.266 353.979L425.536 333.261C425.032 332.878 424.969 332.167 425.473 331.73L450.635 307.841L417.338 315.494C416.96 315.549 416.645 315.549 416.329 315.33C416.014 315.111 415.825 314.893 415.762 314.565L410.906 284.935L400.564 313.963C400.438 314.237 400.248 314.51 399.933 314.619C399.618 314.729 399.239 314.783 398.924 314.674L391.987 312.487C391.357 312.269 390.978 311.667 391.23 311.066C391.483 310.519 392.176 310.191 392.87 310.41L398.546 312.214L410.149 279.633C410.338 279.141 410.843 278.813 411.473 278.867C412.041 278.922 412.546 279.305 412.609 279.797L418.095 313.034L454.167 304.725C454.734 304.615 455.302 304.779 455.554 305.217C455.869 305.654 455.806 306.146 455.428 306.529L428.185 332.331L456.752 355.401C457.194 355.729 457.257 356.275 457.005 356.713C456.689 357.15 456.122 357.369 455.554 357.259L423.203 349.497L420.807 379.399C420.744 379.946 420.176 380.383 419.545 380.383Z" fill="black"/>
<path d="M411.978 381.477C411.41 381.477 410.906 381.149 410.78 380.657L401.825 352.121L388.14 360.485C387.573 360.813 386.753 360.703 386.374 360.211C385.996 359.719 386.122 359.063 386.69 358.681L401.825 349.387C402.14 349.169 402.582 349.114 402.96 349.223C403.338 349.333 403.654 349.606 403.78 349.989L413.239 380.055C413.428 380.657 413.05 381.258 412.356 381.422C412.167 381.477 412.104 381.477 411.978 381.477Z" fill="black"/>
<path d="M610.814 467.959V467.85C615.228 448.334 629.291 435.269 633.453 431.715L633.58 431.661L633.643 431.77C638.94 437.073 644.742 442.047 650.985 446.475C668.705 459.049 666.813 467.795 666.813 467.905V468.014H610.814V467.959Z" fill="black"/>
<path d="M350.618 467.959V467.85C350.618 459.486 357.24 451.669 370.231 439.369C370.924 438.658 371.618 437.947 372.186 437.127L372.249 437.018L372.375 437.073C385.239 444.343 393.059 454.402 396.402 467.795L396.465 467.905L350.618 467.959Z" fill="black"/>
<path d="M444.014 256.399C438.906 256.399 434.113 255.415 429.951 253.393C419.041 248.254 412.735 237.047 412.293 221.85C411.852 206.653 417.212 189.323 427.428 172.978C444.266 146.137 470.437 128.097 492.572 128.097C497.68 128.097 502.473 129.081 506.635 131.103C529.211 141.709 530.346 177.789 509.157 211.518C492.32 238.359 466.149 256.399 444.014 256.399Z" fill="#F696BB"/>
<path d="M487.464 183.419C473.527 183.419 462.176 173.579 462.176 161.498C462.176 149.417 473.527 139.577 487.464 139.577C501.401 139.577 512.752 149.417 512.752 161.498C512.752 173.579 501.401 183.419 487.464 183.419Z" fill="white"/>
<path d="M509.536 171.994C497.302 166.199 492.698 152.861 499.383 142.255L499.446 142.146L499.572 142.201C505.5 144.989 509.851 149.635 511.743 155.266C513.635 160.897 512.941 166.801 509.725 171.994L509.662 172.103L509.536 171.994Z" fill="black"/>
<path d="M477.311 153.79C473.149 153.79 468.923 152.861 465.266 151.111L465.14 151.057L465.203 150.947C469.617 143.895 478.194 139.467 487.464 139.467C491.626 139.467 495.851 140.397 499.509 142.146L499.635 142.201L499.572 142.31C495.157 149.417 486.644 153.79 477.311 153.79Z" fill="black"/>
<path d="M474.662 160.569C474.41 160.569 474.221 160.514 473.969 160.405C473.401 160.077 473.212 159.421 473.59 158.874L473.905 158.437C474.284 157.945 475.041 157.781 475.671 158.109C476.239 158.437 476.428 159.093 476.05 159.639L475.734 160.077C475.482 160.405 475.104 160.569 474.662 160.569Z" fill="black"/>
<path d="M496.292 170.791C496.103 170.791 495.977 170.737 495.788 170.682C495.157 170.463 494.842 169.807 495.157 169.261L495.41 168.769C495.662 168.222 496.419 167.949 497.049 168.222C497.68 168.441 497.995 169.097 497.68 169.643L497.428 170.135C497.238 170.573 496.797 170.791 496.292 170.791Z" fill="black"/>
<path d="M483.806 172.869C482.734 172.869 481.662 172.65 480.653 172.158C477.5 170.682 476.365 167.238 478.068 164.505C478.383 163.958 479.14 163.794 479.77 164.067C480.401 164.341 480.59 164.997 480.275 165.543C479.203 167.183 479.959 169.315 481.851 170.245C482.797 170.682 483.869 170.791 484.941 170.518C485.95 170.245 486.77 169.698 487.275 168.878C487.59 168.331 488.347 168.167 488.977 168.441C489.608 168.714 489.797 169.37 489.482 169.917C488.662 171.229 487.275 172.213 485.635 172.65C485.067 172.814 484.437 172.869 483.806 172.869Z" fill="black"/>
<path d="M442.563 217.203C442.5 217.203 442.5 217.203 442.437 217.203C439.978 217.203 437.708 216.329 435.942 214.798L435.626 214.525C435.248 214.197 434.87 213.814 434.554 213.431C431.717 209.823 432.852 204.903 437.014 202.389L474.284 180.577C474.788 180.303 475.482 180.358 475.923 180.741C476.365 181.123 476.428 181.725 476.05 182.162L449.942 213.869L449.879 213.923C449.563 214.251 449.185 214.634 448.87 214.907C447.23 216.383 444.96 217.203 442.563 217.203ZM469.996 185.825L438.527 204.247C435.5 206.051 434.681 209.659 436.699 212.229C436.888 212.502 437.14 212.775 437.455 212.994L437.771 213.267C439.032 214.415 440.671 215.017 442.437 215.017C444.203 215.017 445.906 214.47 447.104 213.377C447.356 213.158 447.671 212.885 447.924 212.557L469.996 185.825Z" fill="black"/>
<path d="M475.482 215.071H475.041C470.311 215.071 466.464 211.737 466.464 207.637C466.464 206.926 466.59 206.27 466.779 205.723L474.032 181.287C474.158 180.795 474.662 180.467 475.23 180.467C475.797 180.467 476.302 180.795 476.428 181.287L483.743 205.723C484.941 209.659 482.167 213.759 477.626 214.798H477.563L477.374 214.853C476.806 214.962 476.176 215.071 475.482 215.071ZM475.23 185.934L469.176 206.325V206.379C469.05 206.707 468.987 207.09 468.987 207.637C468.987 210.534 471.698 212.885 475.041 212.885H475.482C475.923 212.885 476.365 212.83 476.869 212.721H476.995C480.212 211.955 482.104 209.058 481.284 206.27L475.23 185.934Z" fill="black"/>
<path d="M449.563 186.754C448.996 186.754 448.428 186.371 448.302 185.879C448.176 185.278 448.617 184.731 449.311 184.622L474.977 180.522C475.671 180.413 476.302 180.795 476.428 181.397C476.554 181.998 476.113 182.545 475.419 182.654L449.752 186.754C449.689 186.754 449.626 186.754 449.563 186.754Z" fill="black"/>
<path d="M443.509 288.489C439.473 288.489 436.951 287.45 435.753 285.318L435.374 284.717H434.618C434.554 284.717 430.897 284.662 429.131 282.858C428.311 281.983 428.059 280.89 428.311 279.414L428.5 278.539L427.555 278.211C427.555 278.211 424.843 277.173 424.212 275.205C423.834 274.002 424.275 272.635 425.6 271.105L426.293 270.285L425.41 269.629C425.41 269.629 423.14 267.934 423.392 265.857C423.645 264.162 425.537 262.522 428.942 261.046L447.104 253.174L443.825 252.463C440.167 251.643 440.798 248.855 440.987 248.309C441.491 246.505 448.113 242.733 455.807 238.305C459.464 236.173 463.689 233.767 468.167 231.089L505.374 214.579L525.806 255.798L506.004 265.146C499.761 268.371 487.464 273.947 487.338 274.002C466.401 283.787 452.086 288.489 443.509 288.489Z" fill="white"/>
<path d="M504.617 216.11L524.103 255.306L505.311 264.217H505.248H505.184C499.004 267.442 486.77 272.963 486.644 273.073C466.275 282.585 451.77 287.395 443.509 287.395C438.338 287.395 437.203 285.482 436.825 284.826L436.131 283.623H434.554C433.924 283.623 431.212 283.405 430.014 282.147C429.825 281.929 429.131 281.273 429.446 279.578L429.762 277.883L427.933 277.227C427.302 277.009 425.663 276.134 425.284 274.931C425.032 274.057 425.41 273.018 426.482 271.761L427.87 270.121L426.041 268.809C426.041 268.809 424.275 267.442 424.464 266.021C424.654 264.763 426.356 263.342 429.32 262.03L444.455 255.47L450.888 252.737L444.014 251.37C444.014 251.37 443.194 251.151 442.563 250.659C442.122 250.277 441.68 249.73 441.996 248.527C442.563 247.051 449.879 242.842 456.311 239.179C459.969 237.047 464.131 234.697 468.608 231.963L504.617 216.11ZM505.878 213.103L467.41 230.214C452.275 239.343 440.545 244.974 439.662 248.09C438.401 252.463 443.446 253.557 443.446 253.557L428.311 260.117C416.96 265.037 424.527 270.503 424.527 270.503C419.482 276.517 427.05 279.25 427.05 279.25C425.789 285.81 434.617 285.81 434.617 285.81C436.131 288.434 439.284 289.582 443.509 289.582C453.851 289.582 470.878 282.913 487.842 274.986C487.842 274.986 500.202 269.355 506.509 266.075L527.319 256.235L505.878 213.103Z" fill="black"/>
<path d="M565.283 213.103C564.968 208.019 563.769 203.045 561.688 198.343V198.289L523.599 196.649L503.293 208.675C491.626 216.383 477.5 224.802 467.347 230.105L467.221 230.159L467.284 230.269C467.347 230.323 472.077 237.047 482.482 244.373C483.932 245.411 485.32 246.341 486.581 247.215C494.275 252.518 499.887 256.345 506.319 266.075L510.986 284.225C526.121 275.751 539.932 264.053 549.959 251.315C560.427 238.031 565.851 224.474 565.283 213.103Z" fill="#F9494B"/>
<path d="M510.986 284.17C510.545 284.17 510.103 283.951 509.851 283.623C509.536 283.077 509.725 282.421 510.355 282.147C520.95 277.063 537.22 265.037 549.643 249.675C550.022 249.183 550.842 249.074 551.409 249.402C551.977 249.73 552.103 250.441 551.724 250.933C539.049 266.567 522.4 278.867 511.554 284.061C511.428 284.115 511.175 284.17 510.986 284.17Z" fill="black"/>
<path d="M507.265 284.662C501.842 284.662 496.797 282.038 493.581 279.851C490.049 277.501 487.779 275.095 487.779 275.041L487.653 274.931L506.32 266.021L506.383 266.13C513.887 278.047 511.049 284.115 510.986 284.17V284.225H510.923C509.725 284.553 508.527 284.662 507.265 284.662Z" fill="black"/>
<path d="M447.608 254.213C447.167 254.213 446.725 253.994 446.473 253.611C446.158 253.065 446.41 252.409 446.978 252.135L457.95 247.106C458.581 246.833 459.338 247.051 459.653 247.543C459.968 248.09 459.716 248.746 459.149 249.019L448.176 254.049C447.987 254.158 447.797 254.213 447.608 254.213Z" fill="black"/>
<path d="M426.419 271.597C425.852 271.597 425.347 271.269 425.221 270.831C425.032 270.23 425.41 269.629 426.041 269.465C436.068 266.841 447.924 262.139 456.122 258.586C456.752 258.313 457.509 258.531 457.824 259.078C458.14 259.625 457.888 260.281 457.257 260.554C448.996 264.107 436.951 268.918 426.798 271.542C426.672 271.597 426.546 271.597 426.419 271.597Z" fill="black"/>
<path d="M428.311 279.797C427.743 279.797 427.302 279.469 427.113 279.031C426.924 278.43 427.302 277.829 427.933 277.665C428.122 277.61 446.221 272.799 460.725 266.95C461.356 266.677 462.113 266.95 462.428 267.497C462.743 268.043 462.428 268.699 461.797 268.973C447.104 274.877 428.816 279.742 428.626 279.797C428.563 279.797 428.437 279.797 428.311 279.797Z" fill="black"/>
<path d="M435.879 285.81C435.311 285.81 434.744 285.427 434.617 284.935C434.491 284.334 434.933 283.787 435.626 283.678C435.753 283.678 447.293 281.71 464.509 274.439C465.14 274.166 465.896 274.385 466.212 274.931C466.527 275.478 466.275 276.134 465.644 276.407C448.113 283.842 436.635 285.755 436.131 285.865C436.005 285.81 435.942 285.81 435.879 285.81Z" fill="black"/>
<path d="M468.04 232.237C467.662 232.237 467.221 232.073 467.031 231.745C466.653 231.253 466.779 230.542 467.347 230.214L520.382 198.507C520.95 198.179 521.77 198.289 522.148 198.781C522.526 199.273 522.4 199.983 521.833 200.311L468.797 232.018C468.545 232.182 468.293 232.237 468.04 232.237Z" fill="black"/>
<path d="M539.995 262.85C539.806 262.85 539.616 262.795 539.427 262.741L518.617 253.994C518.301 253.885 518.049 253.611 517.986 253.338C517.86 253.065 517.923 252.737 518.049 252.463L539.68 216.985L493.77 234.314C493.392 234.478 492.95 234.423 492.572 234.205C492.194 233.986 492.004 233.658 492.004 233.275V215.782C492.004 215.181 492.572 214.689 493.266 214.689C493.959 214.689 494.527 215.181 494.527 215.782V231.581L541.95 213.65C542.454 213.486 543.022 213.595 543.4 213.923C543.779 214.251 543.842 214.743 543.589 215.181L520.887 252.463L540.499 260.718C541.13 260.991 541.382 261.647 541.067 262.194C540.941 262.631 540.436 262.85 539.995 262.85Z" fill="black"/>
<path d="M394.762 285.154C394.699 285.154 394.699 285.154 394.636 285.154C393.942 285.099 393.438 284.553 393.501 283.951L404.032 175.93C404.095 175.329 404.726 174.891 405.419 174.946C406.113 175.001 406.618 175.547 406.555 176.149L396.023 284.17C395.96 284.717 395.393 285.154 394.762 285.154Z" fill="black"/>
<path d="M412.609 72.8833C432.536 68.0727 449.185 83.762 449.185 83.762C459.716 94.0393 460.788 105.027 445.212 124.981C445.212 124.981 429.257 110.713 441.113 86.386C417.969 93.8207 400.753 83.8713 400.753 83.8713C403.465 78.0767 407.501 74.086 412.609 72.8833Z" fill="black"/>
<path d="M369.726 304.397C369.6 304.397 369.537 304.397 369.411 304.342C368.717 304.178 368.339 303.577 368.465 303.03L371.618 292.097C371.807 291.495 372.501 291.167 373.132 291.277C373.825 291.441 374.204 292.042 374.078 292.589L370.924 303.522C370.798 304.069 370.294 304.397 369.726 304.397Z" fill="black"/>
<path d="M76.3594 433.793L96.4763 396.783C98.3682 393.777 100.197 390.825 101.9 388.037C103.287 385.741 104.674 383.554 105.936 381.477L124.224 350.918L152.097 315.166L191.133 367.482L174.043 425.429C170.953 432.59 167.737 439.259 164.584 445.382L157.395 452.434L76.3594 433.793Z" fill="white"/>
<path d="M152.098 317.134L189.809 367.701L172.908 425.155C169.818 432.207 166.728 438.822 163.575 444.835L157.016 451.231L78.1883 433.137L97.6116 397.385C99.5034 394.378 101.332 391.481 103.035 388.638C104.422 386.342 105.747 384.155 107.071 382.078L125.296 351.574L152.098 317.134ZM152.161 313.143L123.152 350.317L104.864 380.93C101.9 385.631 98.8098 390.879 95.3413 396.291L74.5938 434.503L157.836 453.637L165.656 445.983C168.557 440.462 171.773 433.738 175.242 425.757L192.521 367.263L152.161 313.143Z" fill="black"/>
<path d="M34.7383 467.959V467.85C34.7383 467.741 32.8464 458.994 50.567 446.421C71.3776 431.661 84.8099 412.746 95.2783 396.237L95.3413 396.127L95.4675 396.182C122.458 408.81 146.107 425.538 165.845 445.874L165.908 445.929L165.845 445.983C157.773 461.399 152.35 467.795 152.287 467.85L152.224 467.905L34.7383 467.959Z" fill="#98D8F4"/>
<path d="M175.241 425.866C175.178 425.811 165.719 419.689 153.989 401.758C149.953 395.635 146.611 388.747 143.332 382.078C137.845 370.926 132.233 359.391 123.215 350.481L92.7556 342.117C93.6385 338.782 101.458 330.91 115.71 316.697C131.728 300.679 155.881 276.517 186.719 242.022C214.655 210.807 222.601 201.678 222.664 201.569V201.514H222.727C222.79 201.514 229.097 200.147 236.538 200.147C245.997 200.147 253.25 202.334 257.475 206.434C261.322 210.151 262.835 215.563 261.952 222.397C259.178 243.826 248.394 261.811 235.907 282.694C222.412 305.271 207.151 330.801 195.737 368.903C189.43 390.005 182.557 409.138 175.367 425.757L175.304 425.866H175.241Z" fill="#6C79D9"/>
<path d="M104.737 380.985C104.548 380.766 88.2781 358.845 92.7556 342.062C92.8186 342.007 95.4042 339.493 100.638 339.493C107.197 339.493 114.449 343.101 122.899 350.207L123.152 350.481L104.864 381.094L104.737 380.985Z" fill="black"/>
<path d="M75.2243 426.249C75.0982 426.249 74.909 426.249 74.7828 426.194L10.7114 406.35C6.61229 405.093 3.39609 402.523 1.56728 399.134C-0.261536 395.745 -0.513786 391.973 0.936652 388.419C1.37809 387.435 1.81953 386.615 2.32403 385.85C4.59428 382.625 8.18883 380.383 12.351 379.509C16.5761 378.634 20.8644 379.235 24.5851 381.258C25.5941 381.805 26.54 382.461 27.4229 383.171L76.1072 424.39C76.5486 424.773 76.6117 425.319 76.2964 425.757C76.0441 426.085 75.6657 426.249 75.2243 426.249ZM16.1347 381.367C15.0626 381.367 14.0536 381.477 12.9816 381.695C9.45008 382.406 6.42309 384.319 4.53121 386.998C4.08978 387.654 3.7114 388.419 3.33303 389.239C2.13484 392.191 2.32403 395.362 3.83753 398.259C5.41409 401.102 8.12578 403.289 11.5942 404.327L70.2424 422.477L25.6572 384.757C24.9635 384.155 24.1437 383.609 23.3239 383.171C21.1167 381.969 18.6572 381.367 16.1347 381.367Z" fill="black"/>
<path d="M75.4764 425.975C75.035 425.975 74.5935 425.757 74.3413 425.374L51.0712 385.249C49.5577 382.625 49.3055 379.673 50.3775 376.885C51.4496 374.097 53.6568 371.91 56.6838 370.598C57.3144 370.27 58.1342 369.997 59.1432 369.833C65.8279 368.302 72.7017 371.801 74.5305 377.595C74.7197 378.415 74.9089 379.181 74.9719 380.001L76.7377 424.882C76.7377 425.374 76.3593 425.866 75.7917 425.975C75.6656 425.975 75.6025 425.975 75.4764 425.975ZM62.2964 371.637C61.4765 371.637 60.5937 371.746 59.7739 371.91C59.0171 372.074 58.3865 372.293 57.882 372.511C55.4225 373.55 53.6568 375.354 52.7739 377.541C51.891 379.782 52.1433 382.133 53.3415 384.21L74.026 419.907L72.4494 380.055C72.3864 379.399 72.2602 378.743 72.1341 378.087C70.8729 374.261 66.7738 371.637 62.2964 371.637Z" fill="black"/>
<path d="M27.9905 450.357C27.2968 450.357 26.7292 449.865 26.7292 449.318C26.7292 448.717 27.2337 448.225 27.9274 448.17C27.9274 448.17 30.1977 448.061 33.2247 446.366C35.9994 444.781 40.0354 441.501 43.3147 434.667C51.6389 417.229 64.9451 421.11 75.6027 424.226C76.2333 424.445 76.6117 425.046 76.4225 425.593C76.1703 426.139 75.4766 426.467 74.8459 426.303H74.7829C64.1253 423.187 53.0263 419.962 45.648 435.487C38.7742 449.919 28.495 450.357 27.9905 450.357Z" fill="black"/>
<path d="M160.359 412.09C160.169 412.09 160.043 412.035 159.854 411.981C159.224 411.762 158.908 411.106 159.224 410.559C164.836 399.407 169.187 389.13 174.232 377.267C180.539 362.343 187.728 345.506 199.584 321.453C218.313 283.569 260.439 222.451 260.817 221.85C261.196 221.358 261.952 221.139 262.52 221.467C263.088 221.795 263.34 222.451 262.961 222.943C262.52 223.545 220.52 284.553 201.854 322.327C189.998 346.326 182.872 363.163 176.566 378.033C171.521 389.95 167.169 400.227 161.494 411.434C161.305 411.871 160.863 412.09 160.359 412.09Z" fill="black"/>
<path d="M119.368 347.583C119.116 347.583 118.864 347.529 118.674 347.365C118.107 347.037 117.981 346.326 118.359 345.834C186.34 261.538 228.34 211.299 228.718 210.807C229.097 210.315 229.917 210.206 230.484 210.589C231.052 210.971 231.178 211.627 230.736 212.119C230.295 212.611 188.358 262.85 120.377 347.146C120.188 347.419 119.746 347.583 119.368 347.583Z" fill="black"/>
<path d="M140.179 376.557C139.99 376.557 139.8 376.502 139.548 376.447C138.917 376.174 138.728 375.518 139.044 374.971C191.385 291.331 236.16 219.718 236.16 219.718C236.475 219.171 237.232 219.007 237.862 219.281C238.493 219.554 238.682 220.21 238.367 220.757C238.367 220.757 193.593 292.37 141.251 376.01C141.062 376.338 140.62 376.557 140.179 376.557Z" fill="black"/>
<path d="M239.376 445.765C238.808 439.697 238.556 432.973 238.556 425.757C238.556 425.593 238.556 407.607 239.817 394.706L242.277 362.234L306.285 354.854L317.952 404.273C318.582 408.427 319.276 412.309 319.97 415.753L325.456 448.443L244.547 460.142L239.376 445.765Z" fill="white"/>
<path d="M305.276 356.057L316.691 404.437C317.321 408.591 318.015 412.473 318.709 415.862L324.006 447.459L245.367 458.83L240.637 445.601C240.133 439.587 239.817 432.918 239.817 425.757C239.817 425.593 239.817 407.662 241.079 394.761L243.475 363.218L305.276 356.057ZM307.294 353.597L241.079 361.25L238.556 394.597C237.295 407.717 237.295 425.757 237.295 425.757C237.295 433.793 237.61 440.517 238.115 445.983L243.601 461.29L326.844 449.263L321.231 415.479C320.474 411.871 319.781 408.045 319.213 404.054L307.294 353.597Z" fill="black"/>
<path d="M242.277 467.959C242.277 467.85 239.502 461.673 238.052 446.038V445.983L238.115 445.929C248.016 439.533 275.952 423.789 321.168 415.37H321.294V415.479C323.88 427.561 327.159 435.378 331.321 439.369C344.312 451.723 350.934 459.486 350.934 467.85V467.959H242.277Z" fill="#98D8F4"/>
<path d="M211.313 404.983C211.376 400.337 216.8 381.149 236.538 341.515C248.331 317.845 245.178 293.135 242.151 269.191C240.007 252.409 237.799 235.079 240.953 218.515V218.406L304.267 221.686L300.421 236.009C301.619 245.411 302.88 254.541 304.204 264.217C307.168 285.591 310.574 309.809 313.664 344.249C314.168 349.606 314.547 355.182 314.988 361.141C315.429 367.154 315.934 373.331 316.438 379.454C316.88 384.702 317.384 389.239 317.826 393.449C318.267 397.275 318.709 400.719 319.213 403.945V404.054L319.15 404.109C319.087 404.109 315.24 405.475 307.231 405.475C298.276 405.475 287.871 403.835 276.331 400.665C256.466 395.198 244.862 394.597 240.763 394.597C239.628 394.597 238.935 394.651 238.682 394.651L211.313 404.983Z" fill="#6C79D9"/>
<path d="M237.295 425.866C237.043 425.811 214.782 421.547 211.692 408.646C211.376 407.443 211.313 406.241 211.313 404.983V404.929C211.376 404.819 215.98 395.799 238.304 394.706H238.619C237.989 403.945 237.358 425.538 237.358 425.757V425.866H237.295V425.866Z" fill="black"/>
<path d="M296.574 406.077C295.88 406.077 295.312 405.585 295.312 405.038C291.592 286.193 285.916 232.893 285.853 232.346C285.79 231.745 286.294 231.198 286.988 231.143C287.682 231.089 288.312 231.526 288.375 232.127C288.439 232.674 294.114 286.029 297.835 404.929C297.835 405.53 297.33 406.077 296.574 406.077Z" fill="black"/>
<path d="M256.844 397.33C256.781 397.33 256.718 397.33 256.655 397.33C255.961 397.275 255.457 396.729 255.583 396.127C256.214 392.137 256.844 387.873 257.538 383.445C260.502 364.585 263.844 343.155 266.304 318.501C269.394 287.231 268.196 228.465 268.196 227.863C268.196 227.262 268.763 226.77 269.457 226.77C270.151 226.715 270.718 227.262 270.718 227.863C270.718 228.465 271.916 287.341 268.826 318.719C266.367 343.374 263.024 364.858 260.061 383.773C259.367 388.201 258.736 392.41 258.106 396.401C258.043 396.947 257.475 397.33 256.844 397.33Z" fill="black"/>
<path d="M304.583 268.426C303.069 257.766 300.421 237.758 300.231 236.173C298.844 236.118 297.457 236.118 296.069 236.118C281.06 236.118 269.583 238.687 257.349 241.475C244.989 244.263 232.124 247.161 215.16 247.161C192.647 247.161 178.584 242.569 170.701 238.687C162.188 234.478 158.971 230.214 158.908 230.159L158.845 230.105L252.304 124.543L285.222 131.103L326.213 246.505C326.276 246.614 330.817 258.367 304.646 268.59L304.52 268.645L304.583 268.426Z" fill="#98D8F4"/>
<path d="M304.646 268.426C303.132 257.766 300.484 237.758 300.294 236.173H300.547C322.492 237.266 326.339 246.286 326.402 246.395C326.465 246.505 331.006 258.258 304.835 268.481L304.709 268.535L304.646 268.426Z" fill="black"/>
<path d="M258.043 288.489C249.466 288.489 235.151 283.787 214.34 274.057C214.214 274.002 201.917 268.426 195.737 265.201L175.872 255.798L196.304 214.579L233.511 231.089C237.989 233.822 242.151 236.173 245.871 238.305C253.565 242.733 260.187 246.505 260.691 248.309C261.637 251.534 258.232 252.354 257.853 252.463L254.574 253.174L272.736 261.046C276.141 262.522 278.033 264.162 278.286 265.857C278.601 267.934 276.331 269.629 276.268 269.629L275.385 270.285L276.078 271.105C277.34 272.635 277.844 274.002 277.466 275.205C276.835 277.173 274.123 278.157 274.123 278.211L273.241 278.539L273.43 279.414C273.682 280.89 273.43 281.983 272.61 282.858C270.844 284.662 267.124 284.717 267.124 284.717H266.367L265.988 285.318C264.601 287.45 262.015 288.489 258.043 288.489Z" fill="white"/>
<path d="M196.935 216.11L232.881 232.073C237.358 234.751 241.52 237.157 245.178 239.289C251.61 242.951 258.862 247.161 259.493 248.637C259.871 249.839 259.43 250.386 258.988 250.769C258.358 251.261 257.601 251.479 257.601 251.479L250.727 252.791L257.033 255.525L272.168 262.085C275.132 263.342 276.835 264.763 277.024 266.021C277.213 267.442 275.511 268.809 275.448 268.809L273.619 270.121L275.006 271.761C276.078 273.018 276.457 274.057 276.204 274.931C275.826 276.134 274.186 277.009 273.556 277.227L271.727 277.883L272.042 279.578C272.358 281.273 271.727 281.929 271.538 282.147C270.403 283.295 267.817 283.623 266.997 283.623H265.421L264.727 284.826C264.349 285.482 263.277 287.395 258.042 287.395C249.781 287.395 235.277 282.585 214.908 273.073C214.782 273.018 202.547 267.442 196.367 264.271H196.304H196.241L177.449 255.361L196.935 216.11ZM195.674 213.103L174.232 256.29L195.043 266.13C201.349 269.41 213.71 275.041 213.71 275.041C230.61 282.913 247.637 289.637 258.042 289.637C262.331 289.637 265.421 288.489 266.934 285.865C266.934 285.865 275.763 285.865 274.502 279.305C274.502 279.305 282.069 276.571 277.024 270.558C277.024 270.558 284.592 265.091 273.241 260.171L258.106 253.611C258.106 253.611 263.151 252.518 261.889 248.145C261.006 245.029 249.277 239.398 234.142 230.269L195.674 213.103Z" fill="black"/>
<path d="M190.629 284.279C175.494 275.806 161.62 264.107 151.593 251.37C141.125 238.031 135.701 224.474 136.269 213.103C136.962 199.819 145.161 185.114 159.287 171.611C177.512 154.282 205.007 138.975 241.015 126.074L252.682 124.434L198.385 208.675C210.052 216.383 224.115 224.802 234.268 230.05L234.394 230.105L234.331 230.214C234.268 230.269 229.538 236.993 219.133 244.318C217.682 245.357 216.295 246.286 215.034 247.161C207.34 252.463 201.728 256.29 195.295 266.021L190.629 284.279Z" fill="#98D8F4"/>
<path d="M194.286 284.662C193.025 284.662 191.764 284.498 190.566 284.225H190.503V284.17C190.376 283.951 187.034 278.758 195.106 266.185L195.232 266.021L213.899 274.931L213.773 275.041C213.773 275.041 211.502 277.446 207.971 279.851C204.755 282.093 199.773 284.662 194.286 284.662Z" fill="black"/>
<path d="M253.817 253.994C253.628 253.994 253.439 253.939 253.25 253.885L242.403 249.074C241.772 248.801 241.52 248.145 241.835 247.598C242.151 247.051 242.908 246.833 243.538 247.106L254.385 251.917C255.015 252.19 255.268 252.846 254.952 253.393C254.7 253.775 254.259 253.994 253.817 253.994Z" fill="black"/>
<path d="M275.132 271.597C275.006 271.597 274.88 271.597 274.754 271.542C264.601 268.863 252.556 264.107 244.295 260.554C243.664 260.281 243.412 259.625 243.727 259.078C244.043 258.531 244.799 258.313 245.43 258.586C253.628 262.085 265.484 266.841 275.511 269.465C276.204 269.629 276.583 270.23 276.331 270.831C276.204 271.269 275.7 271.597 275.132 271.597Z" fill="black"/>
<path d="M273.24 279.797C273.114 279.797 272.988 279.797 272.862 279.742C272.673 279.687 254.385 274.822 239.691 268.918C239.061 268.645 238.808 267.989 239.061 267.442C239.376 266.895 240.133 266.677 240.763 266.895C255.268 272.745 273.43 277.555 273.556 277.61C274.249 277.774 274.628 278.375 274.376 278.977C274.312 279.469 273.808 279.797 273.24 279.797Z" fill="black"/>
<path d="M265.673 285.81C265.61 285.81 265.547 285.81 265.421 285.81C264.916 285.755 253.439 283.787 235.907 276.353C235.277 276.079 235.025 275.423 235.34 274.877C235.655 274.33 236.412 274.111 237.043 274.385C254.259 281.655 265.799 283.623 265.925 283.623C266.619 283.733 267.06 284.334 266.934 284.881C266.808 285.427 266.24 285.81 265.673 285.81Z" fill="black"/>
<path d="M233.511 232.237C233.259 232.237 233.007 232.182 232.817 232.018L186.151 204.138C185.584 203.81 185.458 203.099 185.836 202.607C186.214 202.115 187.034 202.006 187.602 202.334L234.268 230.214C234.835 230.542 234.962 231.253 234.583 231.745C234.331 232.073 233.889 232.237 233.511 232.237Z" fill="black"/>
<path d="M197.565 210.917C197.376 210.917 197.124 210.862 196.935 210.753C196.304 210.479 196.115 209.769 196.43 209.277L233.7 151.275C234.016 150.729 234.835 150.565 235.403 150.838C236.034 151.111 236.223 151.822 235.907 152.314L198.637 210.37C198.448 210.698 198.007 210.917 197.565 210.917Z" fill="black"/>
<path d="M314.862 215.837C314.294 215.837 313.853 215.509 313.664 215.071L284.024 131.431C283.835 130.83 284.213 130.229 284.844 130.065C285.538 129.901 286.231 130.229 286.421 130.775L316.06 214.415C316.249 215.017 315.871 215.618 315.24 215.782C315.114 215.837 314.988 215.837 314.862 215.837Z" fill="black"/>
<path d="M277.024 238.797C276.331 238.797 275.763 238.305 275.763 237.703L275.132 137.117C275.132 136.515 275.7 136.023 276.394 136.023C277.087 136.023 277.655 136.515 277.655 137.117L278.285 237.703C278.285 238.305 277.718 238.797 277.024 238.797Z" fill="black"/>
<path d="M246.817 132.47C239.187 132.47 233.007 127.113 233.007 120.498C233.007 113.883 239.187 108.526 246.817 108.526C254.448 108.526 260.628 113.883 260.628 120.498C260.628 127.113 254.448 132.47 246.817 132.47Z" fill="white"/>
<path d="M246.817 109.565C253.754 109.565 259.367 114.43 259.367 120.443C259.367 126.457 253.754 131.322 246.817 131.322C239.88 131.322 234.268 126.457 234.268 120.443C234.268 114.43 239.88 109.565 246.817 109.565ZM246.817 107.378C238.493 107.378 231.745 113.227 231.745 120.443C231.745 127.659 238.493 133.509 246.817 133.509C255.142 133.509 261.889 127.659 261.889 120.443C261.952 113.227 255.205 107.378 246.817 107.378Z" fill="black"/>
<path d="M277.97 137.499C271.601 137.499 265.421 134.11 260.123 127.714C241.016 104.754 243.349 94.1487 253.313 84.418C253.439 84.3087 265.673 72.9927 281.249 72.9927C283.772 72.9927 286.231 73.266 288.628 73.8673C299.348 76.4367 305.15 92.2353 302.123 110.658C299.538 126.457 289.574 137.499 277.97 137.499Z" fill="white"/>
<path d="M281.187 74.1406C283.583 74.1406 285.916 74.414 288.25 74.9606C292.853 76.054 296.7 80.0993 299.096 86.3313C301.682 93.0007 302.312 101.638 300.799 110.549C299.538 118.147 296.448 124.871 292.096 129.573C287.997 133.946 282.952 136.351 277.907 136.351C271.979 136.351 266.178 133.126 261.07 127.058C242.466 104.699 244.61 94.4767 254.133 85.1833C254.637 84.8007 266.43 74.1406 281.187 74.1406ZM281.187 71.954C264.853 71.954 252.367 83.7073 252.367 83.7073C241.268 94.5313 240.7 106.23 259.115 128.37C265.043 135.477 271.664 138.593 277.97 138.593C289.889 138.593 300.673 127.55 303.385 110.877C306.538 91.5793 300.168 75.562 288.943 72.8833C286.295 72.2273 283.709 71.954 281.187 71.954Z" fill="black"/>
<path d="M288.943 72.8833C269.015 68.0727 252.367 83.762 252.367 83.762C241.835 94.0393 240.763 105.027 256.34 124.981C256.34 124.981 272.295 110.713 260.439 86.386C283.583 93.8207 300.799 83.8713 300.799 83.8713C298.087 78.0767 294.051 74.086 288.943 72.8833Z" fill="black"/>
<path d="M289.574 111.369C289.195 111.369 288.88 111.259 288.628 110.986C288.186 110.549 288.249 109.838 288.754 109.455C289.447 108.963 289.952 108.307 290.267 107.542C290.709 105.957 289.321 101.802 288.249 98.7953C288.06 98.194 288.438 97.5927 289.069 97.4287C289.763 97.2647 290.456 97.5927 290.646 98.1393C292.664 103.661 293.231 106.449 292.664 108.143V108.198C292.222 109.346 291.465 110.275 290.393 111.095C290.141 111.259 289.889 111.369 289.574 111.369Z" fill="black"/>
<path d="M280.114 104.535C279.547 104.535 278.979 104.153 278.853 103.661L278.538 102.294C278.412 101.693 278.853 101.146 279.547 100.982C280.24 100.873 280.871 101.255 281.06 101.857L281.376 103.223C281.502 103.825 281.06 104.371 280.367 104.535C280.304 104.535 280.177 104.535 280.114 104.535Z" fill="black"/>
<path d="M296.447 98.4127C295.817 98.4127 295.312 98.03 295.186 97.4834L294.934 96.1714C294.808 95.57 295.312 95.0234 295.943 94.914C296.637 94.8047 297.267 95.242 297.393 95.7887L297.646 97.1007C297.772 97.702 297.267 98.2487 296.637 98.358C296.574 98.4127 296.511 98.4127 296.447 98.4127Z" fill="black"/>
<path d="M285.033 119.077C283.835 119.077 282.7 118.803 281.628 118.257C280.178 117.491 279.169 116.234 278.79 114.813C278.664 114.211 279.042 113.665 279.736 113.501C280.43 113.391 281.06 113.719 281.25 114.321C281.691 116.125 283.835 117.273 285.916 116.835C286.168 116.781 286.421 116.726 286.673 116.617C287.304 116.398 288.06 116.671 288.313 117.218C288.565 117.765 288.25 118.421 287.619 118.639C287.304 118.749 286.862 118.913 286.421 118.967C285.979 119.022 285.538 119.077 285.033 119.077Z" fill="black"/>
<path d="M244.736 123.341C244.295 123.341 243.853 123.122 243.664 122.794C243.349 122.247 243.538 121.591 244.169 121.318L251.862 117.601C252.493 117.327 253.25 117.491 253.565 118.038C253.88 118.585 253.691 119.241 253.061 119.514L245.367 123.231C245.178 123.286 244.925 123.341 244.736 123.341Z" fill="black"/>
<path d="M138.665 231.307C138.098 231.307 137.593 230.979 137.467 230.542C137.278 229.941 137.656 229.339 138.35 229.175C144.467 227.59 149.89 224.31 153.611 219.773C162.881 208.621 159.917 192.931 147.052 184.895C146.485 184.567 146.359 183.857 146.737 183.365C147.116 182.873 147.935 182.763 148.503 183.091C162.566 191.838 165.782 208.894 155.692 221.03C151.656 225.895 145.728 229.503 139.044 231.253C138.917 231.307 138.791 231.307 138.665 231.307Z" fill="black"/>
<path d="M246.754 250.277C246.628 250.277 246.502 250.277 246.313 250.222C245.682 250.003 245.304 249.402 245.556 248.855L261.952 208.402C262.205 207.855 262.898 207.527 263.529 207.746C264.16 207.965 264.538 208.566 264.286 209.113L247.889 249.566C247.763 250.003 247.259 250.277 246.754 250.277Z" fill="black"/>
<path d="M269.457 222.943C268.952 222.943 268.511 222.67 268.259 222.287L262.709 210.589L249.151 215.782C248.52 216.001 247.763 215.782 247.511 215.235C247.259 214.689 247.511 214.033 248.142 213.814L262.898 208.183C263.214 208.074 263.592 208.074 263.907 208.183C264.223 208.293 264.475 208.511 264.601 208.785L270.655 221.522C270.907 222.069 270.592 222.725 269.961 222.943C269.772 222.943 269.646 222.943 269.457 222.943Z" fill="black"/>
<path d="M291.248 198.366C296.18 188.439 290.608 176.819 278.804 172.413C266.999 168.007 253.433 172.483 248.501 182.41C243.57 192.338 249.142 203.958 260.946 208.364C272.75 212.77 286.317 208.294 291.248 198.366Z" fill="#6C79D9"/>
<path d="M269.898 192.221C271.048 192.221 271.979 191.413 271.979 190.417C271.979 189.42 271.048 188.613 269.898 188.613C268.749 188.613 267.817 189.42 267.817 190.417C267.817 191.413 268.749 192.221 269.898 192.221Z" fill="black"/>
<path d="M328.483 436.581C328.042 436.581 327.6 436.362 327.348 435.979C327.096 435.542 327.222 434.941 327.663 434.667L382.654 396.565C389.843 391.59 400.311 392.574 406.05 398.806C406.744 399.517 407.374 400.391 407.942 401.375C409.96 404.765 410.275 408.701 408.888 412.363C407.5 416.026 404.537 418.978 400.564 420.727C399.302 421.274 398.167 421.657 397.032 421.875L328.735 436.581C328.672 436.581 328.609 436.581 328.483 436.581ZM393.059 395.581C389.969 395.581 386.879 396.455 384.23 398.259L333.717 433.246L396.401 419.743C397.347 419.579 398.293 419.251 399.365 418.814C402.708 417.338 405.23 414.823 406.428 411.707C407.627 408.591 407.311 405.257 405.609 402.359C405.167 401.539 404.663 400.829 404.095 400.227C401.32 397.111 397.221 395.581 393.059 395.581Z" fill="black"/>
<path d="M328.609 436.69C328.231 436.69 327.916 436.581 327.663 436.307C327.222 435.87 327.285 435.159 327.789 434.777C341.663 424.718 353.519 403.999 346.897 382.242C346.708 381.641 347.15 381.039 347.78 380.93C348.474 380.766 349.168 381.149 349.294 381.695C356.168 404.327 343.807 425.975 329.303 436.417C329.177 436.581 328.925 436.69 328.609 436.69Z" fill="black"/>
<path d="M328.105 454.73C327.853 454.73 327.537 454.675 327.285 454.511C326.717 454.129 326.654 453.418 327.096 452.981L335.609 443.851C336.051 443.359 336.871 443.305 337.375 443.687C337.943 444.07 338.006 444.781 337.564 445.218L329.051 454.347C328.862 454.566 328.483 454.73 328.105 454.73Z" fill="black"/>
<path d="M314.042 442.758C313.6 442.758 313.159 442.539 312.907 442.157C312.591 441.61 312.844 440.954 313.474 440.681L327.6 434.667C328.231 434.394 328.988 434.613 329.303 435.159C329.618 435.706 329.366 436.362 328.735 436.635L314.609 442.649C314.42 442.703 314.231 442.758 314.042 442.758Z" fill="black"/>
<path d="M87.8367 436.143C87.5214 436.143 87.2061 436.034 86.9539 435.87L71.8189 423.843C71.3144 423.461 71.2513 422.75 71.7558 422.313C72.1972 421.875 73.017 421.821 73.5215 422.258L88.6565 434.285C89.161 434.667 89.2241 435.378 88.7196 435.815C88.5304 436.034 88.152 436.143 87.8367 436.143Z" fill="black"/>
<path d="M74.2782 449.537C73.8999 449.537 73.5215 449.373 73.2692 449.099L62.3594 436.635C61.918 436.143 62.0441 435.487 62.6117 435.105C63.1793 434.722 63.936 434.831 64.3774 435.323L75.2872 447.787C75.7287 448.279 75.6026 448.935 75.035 449.318C74.7827 449.482 74.5305 449.537 74.2782 449.537Z" fill="black"/>
</svg>
