<svg width="20" height="20" viewBox="0 0 20 20" fill="none" xmlns="http://www.w3.org/2000/svg">
<path d="M20 10.4762C20 15.7362 15.523 20 10 20C4.4772 20 0 15.7362 0 10.4762C0 5.21638 4.4772 0.952377 10 0.952377C15.523 0.952377 20 5.21638 20 10.4762Z" fill="#4865C8"/>
<path d="M20 9.52381C20 14.7838 15.523 19.0476 10 19.0476C4.4772 19.0476 0 14.7838 0 9.52381C0 4.264 4.4772 0 10 0C15.523 0 20 4.264 20 9.52381Z" fill="#FF3A44"/>
<path d="M16 8.57143H4V12.381H16V8.57143Z" fill="#4865C8"/>
<path d="M16 8.57143H4V11.4286H16V8.57143Z" fill="#ECF0F1"/>
</svg>
