<svg width="143" height="48" viewBox="0 0 143 48" fill="none" xmlns="http://www.w3.org/2000/svg">
<path d="M65.5781 32H68.4766V25.2031H75.125V22.7734H68.4766V18.4297H75.8281V16H65.5781V32ZM81.6895 32.2422C83.5723 32.2422 84.6973 31.3594 85.2129 30.3516H85.3066V32H88.0254V23.9687C88.0254 20.7969 85.4395 19.8438 83.1504 19.8438C80.627 19.8438 78.6895 20.9687 78.0645 23.1562L80.7051 23.5312C80.9863 22.7109 81.7832 22.0078 83.166 22.0078C84.4785 22.0078 85.1973 22.6797 85.1973 23.8594V23.9062C85.1973 24.7188 84.3457 24.7578 82.2285 24.9844C79.9004 25.2344 77.6738 25.9297 77.6738 28.6328C77.6738 30.9922 79.4004 32.2422 81.6895 32.2422ZM82.4238 30.1641C81.2441 30.1641 80.4004 29.625 80.4004 28.5859C80.4004 27.5 81.3457 27.0469 82.6113 26.8672C83.3535 26.7656 84.8379 26.5781 85.2051 26.2812V27.6953C85.2051 29.0312 84.127 30.1641 82.4238 30.1641ZM90.8691 32H93.6973V24.7031C93.6973 23.2266 94.6816 22.2266 95.9004 22.2266C97.0957 22.2266 97.916 23.0312 97.916 24.2656V32H100.689V24.5156C100.689 23.1641 101.494 22.2266 102.861 22.2266C104.002 22.2266 104.908 22.8984 104.908 24.3828V32H107.744V23.9453C107.744 21.2656 106.197 19.8438 103.994 19.8438C102.252 19.8438 100.924 20.7031 100.393 22.0391H100.268C99.8066 20.6797 98.6426 19.8438 97.0254 19.8438C95.416 19.8438 94.2129 20.6719 93.7129 22.0391H93.5723V20H90.8691V32ZM110.613 32H113.441V20H110.613V32ZM112.035 18.2969C112.934 18.2969 113.668 17.6094 113.668 16.7656C113.668 15.9141 112.934 15.2266 112.035 15.2266C111.129 15.2266 110.395 15.9141 110.395 16.7656C110.395 17.6094 111.129 18.2969 112.035 18.2969ZM119.178 16H116.35V32H119.178V16ZM123.844 36.5C126.047 36.5 127.32 35.3672 128 33.4531L132.82 20.0156L129.797 20L127.023 29.0625H126.898L124.133 20H121.133L125.484 32.25L125.242 32.8984C124.719 34.2656 123.891 34.3594 122.656 34L122 36.2031C122.383 36.3594 123.07 36.5 123.844 36.5Z" fill="#5E81F4"/>
<rect width="48" height="48" rx="12" fill="#5E81F4"/>
<path d="M30.656 17.008C30.544 18.368 30.488 19.584 30.488 20.656C30.488 21.408 30.512 22.016 30.56 22.48H30.008C29.688 20.672 29.208 19.4 28.568 18.664C27.928 17.928 27.032 17.56 25.88 17.56H25.088C24.592 17.56 24.232 17.6 24.008 17.68C23.784 17.76 23.632 17.92 23.552 18.16C23.472 18.384 23.432 18.752 23.432 19.264V25.312H24.272C25.12 25.312 25.76 25 26.192 24.376C26.64 23.752 26.952 23.008 27.128 22.144H27.68C27.632 22.816 27.608 23.568 27.608 24.4V25.552C27.608 26.368 27.656 27.504 27.752 28.96H27.2C26.864 26.848 25.888 25.792 24.272 25.792H23.432V31.312C23.432 31.952 23.496 32.424 23.624 32.728C23.768 33.016 24.008 33.208 24.344 33.304C24.696 33.4 25.248 33.456 26 33.472V34C24.032 33.952 22.568 33.928 21.608 33.928C20.808 33.928 19.8 33.944 18.584 33.976L17.816 34V33.52C18.344 33.488 18.728 33.424 18.968 33.328C19.224 33.232 19.392 33.048 19.472 32.776C19.568 32.504 19.616 32.064 19.616 31.456V19.552C19.616 18.944 19.568 18.504 19.472 18.232C19.392 17.96 19.224 17.776 18.968 17.68C18.728 17.584 18.344 17.52 17.816 17.488V17.008C19.544 17.056 22.152 17.08 25.64 17.08C27.992 17.08 29.664 17.056 30.656 17.008Z" fill="white"/>
</svg>
