<svg width="20" height="20" viewBox="0 0 20 20" fill="none" xmlns="http://www.w3.org/2000/svg">
<path d="M9.66129 18.854H4.44482C3.02716 18.854 1.87691 17.6995 1.87691 16.2861V3.71392C1.87691 2.29626 3.03141 1.14601 4.44482 1.14601H9.74618C10.0645 1.14601 10.3192 0.891341 10.3192 0.573005C10.3192 0.254669 10.0645 0 9.74618 0H4.44482C2.39473 0 0.730896 1.66808 0.730896 3.71392V16.2861C0.730896 18.3362 2.39898 20 4.44482 20H9.66129C9.97962 20 10.2343 19.7453 10.2343 19.427C10.2343 19.1087 9.97538 18.854 9.66129 18.854Z" fill="black"/>
<path d="M19.101 9.59655L15.4593 5.95485C15.2343 5.72989 14.8735 5.72989 14.6486 5.95485C14.4236 6.1798 14.4236 6.54058 14.6486 6.76553L17.3141 9.43102H5.68848C5.37015 9.43102 5.11548 9.68568 5.11548 10.004C5.11548 10.3223 5.37015 10.577 5.68848 10.577H17.3141L14.6486 13.2425C14.4236 13.4674 14.4236 13.8282 14.6486 14.0532C14.7589 14.1635 14.9075 14.223 15.0518 14.223C15.1961 14.223 15.3447 14.1678 15.455 14.0532L19.0968 10.4115C19.326 10.1823 19.326 9.81726 19.101 9.59655Z" fill="black"/>
</svg>
