<svg width="512" height="512" viewBox="0 0 512 512" fill="none" xmlns="http://www.w3.org/2000/svg">
<path d="M416 512H96C42.9766 512 0 469.023 0 416V96C0 42.9766 42.9766 0 96 0H416C469.023 0 512 42.9766 512 96V416C512 469.023 469.023 512 416 512Z" fill="#F5E6FE"/>
<path d="M341.328 170.672H170.672C164.785 170.672 160 175.457 160 181.344V202.672C160 208.559 164.785 213.344 170.672 213.344H341.344C347.23 213.344 352.016 208.559 352.016 202.672V181.344C352 175.457 347.215 170.672 341.328 170.672Z" fill="#5E81F4"/>
<path d="M341.328 234.672H170.672C164.785 234.672 160 239.457 160 245.344V266.672C160 272.559 164.785 277.344 170.672 277.344H341.344C347.23 277.344 352.016 272.559 352.016 266.672V245.344C352 239.457 347.215 234.672 341.328 234.672Z" fill="#5E81F4"/>
<path d="M341.328 298.672H170.672C164.785 298.672 160 303.457 160 309.344V330.672C160 336.559 164.785 341.344 170.672 341.344H341.344C347.23 341.344 352.016 336.559 352.016 330.672V309.344C352 303.457 347.215 298.672 341.328 298.672Z" fill="#5E81F4"/>
</svg>
